<svg width="22" height="22" viewBox="0 0 22 22" fill="none" xmlns="http://www.w3.org/2000/svg">
<path d="M20.5173 11C20.5173 8.56168 20.5165 6.80706 20.337 5.47106C20.1602 4.15628 19.8233 3.35779 19.2327 2.76725C18.6422 2.17672 17.8437 1.83978 16.5289 1.66302C15.1929 1.48347 13.4383 1.4827 11 1.4827C8.56168 1.4827 6.80706 1.48347 5.47106 1.66302C4.15628 1.83978 3.35779 2.17672 2.76725 2.76725C2.17672 3.35779 1.83978 4.15628 1.66302 5.47106C1.48347 6.80706 1.4827 8.56168 1.4827 11C1.4827 13.4383 1.48347 15.1929 1.66302 16.5289C1.83978 17.8437 2.17672 18.6422 2.76725 19.2327C3.35779 19.8233 4.15628 20.1602 5.47106 20.337C6.80706 20.5165 8.56168 20.5173 11 20.5173C13.4383 20.5173 15.1929 20.5165 16.5289 20.337C17.8437 20.1602 18.6422 19.8233 19.2327 19.2327C19.8233 18.6422 20.1602 17.8437 20.337 16.5289C20.5165 15.1929 20.5173 13.4383 20.5173 11ZM22 11C22 13.3967 22.0012 15.2694 21.8052 16.7271C21.6064 18.2059 21.1919 19.3685 20.2802 20.2802C19.3685 21.1919 18.2059 21.6064 16.7271 21.8052C15.2694 22.0012 13.3967 22 11 22C8.60332 22 6.73065 22.0012 5.27292 21.8052C3.79409 21.6064 2.63151 21.1919 1.71979 20.2802C0.808073 19.3685 0.393646 18.2059 0.194799 16.7271C-0.00117024 15.2694 1.63074e-07 13.3967 1.63074e-07 11C1.63074e-07 8.60332 -0.00117024 6.73065 0.194799 5.27292C0.393646 3.79409 0.808073 2.63151 1.71979 1.71979C2.63151 0.808073 3.79409 0.393646 5.27292 0.194799C6.73065 -0.00117024 8.60332 1.63074e-07 11 1.63074e-07C13.3967 1.63074e-07 15.2694 -0.00117024 16.7271 0.194799C18.2059 0.393646 19.3685 0.808073 20.2802 1.71979C21.1919 2.63151 21.6064 3.79409 21.8052 5.27292C22.0012 6.73065 22 8.60332 22 11Z" fill="black"/>
<path d="M16.175 8.19601C16.4643 7.90667 16.9342 7.90667 17.2235 8.19601C17.5129 8.48535 17.5129 8.95524 17.2235 9.24458L14.04 12.4281C13.6873 12.7807 13.2085 12.978 12.7098 12.978C12.2111 12.978 11.7323 12.7807 11.3796 12.4281L9.57185 10.6204C9.49704 10.5457 9.396 10.5035 9.29023 10.5035C9.18447 10.5035 9.08342 10.5457 9.00861 10.6204L5.82504 13.804C5.5357 14.0933 5.06581 14.0933 4.77647 13.804C4.48713 13.5146 4.48713 13.0448 4.77647 12.7554L7.96004 9.57184C8.31273 9.21926 8.79152 9.02196 9.29023 9.02196C9.78894 9.02196 10.2677 9.21926 10.6204 9.57184L12.4282 11.3796C12.503 11.4543 12.604 11.4965 12.7098 11.4965C12.8155 11.4965 12.9166 11.4543 12.9914 11.3796L16.175 8.19601Z" fill="black"/>
</svg>
