<svg width="40" height="40" viewBox="0 0 40 40" fill="none" xmlns="http://www.w3.org/2000/svg">
<g filter="url(#filter0_i_419_1134)">
<rect x="2" y="2" width="36" height="36" rx="18" fill="white"/>
<rect x="1" y="1" width="38" height="38" rx="19" stroke="#D6BBFC" stroke-width="2"/>
<path d="M22.5 19.5C22.5 20.163 22.2366 20.7989 21.7678 21.2678C21.2989 21.7366 20.663 22 20 22C19.337 22 18.7011 21.7366 18.2322 21.2678C17.7634 20.7989 17.5 20.163 17.5 19.5C17.5 18.837 17.7634 18.2011 18.2322 17.7322C18.7011 17.2634 19.337 17 20 17C20.663 17 21.2989 17.2634 21.7678 17.7322C22.2366 18.2011 22.5 18.837 22.5 19.5Z" stroke="black" stroke-width="1.5" stroke-linejoin="round"/>
<path d="M20 10C22.21 10 23.998 11.917 23.998 14.127C24.3193 14.0423 24.6533 14 25 14C25.9087 13.9996 26.7905 14.3086 27.5002 14.8762C28.2099 15.4438 28.7052 16.2361 28.9045 17.1227C29.1038 18.0094 28.9952 18.9374 28.5967 19.7541C28.1982 20.5708 27.5335 21.2275 26.712 21.616C27.0374 22.0558 27.2692 22.5578 27.3929 23.0907C27.5166 23.6237 27.5296 24.1764 27.4312 24.7146C27.3328 25.2529 27.125 25.7652 26.8207 26.2199C26.5164 26.6746 26.1221 27.062 25.662 27.3583C25.202 27.6545 24.6861 27.8532 24.1462 27.9421C23.6063 28.0309 23.054 28.0081 22.5233 27.875C21.9926 27.7419 21.4948 27.5013 21.0608 27.1681C20.6268 26.8349 20.2657 26.4163 20 25.938C19.7342 26.4163 19.3732 26.8349 18.9392 27.1681C18.5051 27.5013 18.0074 27.7419 17.4767 27.875C16.946 28.0081 16.3936 28.0309 15.8537 27.9421C15.3138 27.8532 14.7979 27.6545 14.3379 27.3583C13.8779 27.062 13.4835 26.6746 13.1792 26.2199C12.8749 25.7652 12.6671 25.2529 12.5687 24.7146C12.4703 24.1764 12.4834 23.6237 12.6071 23.0907C12.7308 22.5578 12.9625 22.0558 13.288 21.616C12.385 21.1919 11.6731 20.4456 11.292 19.5237C10.9108 18.6018 10.8879 17.5707 11.2278 16.6328C11.5677 15.6949 12.2457 14.9178 13.129 14.454C14.0122 13.9902 15.0369 13.8732 16.002 14.126C16.002 11.918 17.79 10 20 10Z" stroke="black" stroke-width="1.5" stroke-linejoin="round"/>
</g>
<defs>
<filter id="filter0_i_419_1134" x="0" y="0" width="40" height="44" filterUnits="userSpaceOnUse" color-interpolation-filters="sRGB">
<feFlood flood-opacity="0" result="BackgroundImageFix"/>
<feBlend mode="normal" in="SourceGraphic" in2="BackgroundImageFix" result="shape"/>
<feColorMatrix in="SourceAlpha" type="matrix" values="0 0 0 0 0 0 0 0 0 0 0 0 0 0 0 0 0 0 127 0" result="hardAlpha"/>
<feOffset dy="4"/>
<feGaussianBlur stdDeviation="7.3"/>
<feComposite in2="hardAlpha" operator="arithmetic" k2="-1" k3="1"/>
<feColorMatrix type="matrix" values="0 0 0 0 0.776923 0 0 0 0 0.768706 0 0 0 0 0.768706 0 0 0 0.25 0"/>
<feBlend mode="normal" in2="shape" result="effect1_innerShadow_419_1134"/>
</filter>
</defs>
</svg>
