<svg width="40" height="40" viewBox="0 0 40 40" fill="none" xmlns="http://www.w3.org/2000/svg">
<rect x="0.5" y="0.5" width="39" height="39" rx="11.5" fill="white"/>
<rect x="0.5" y="0.5" width="39" height="39" rx="11.5" stroke="#804EC1"/>
<g clip-path="url(#clip0_339_2285)">
<path d="M30.61 24.95C30.9322 24.1893 31.0609 23.3606 30.9845 22.5381C30.9082 21.7155 30.6293 20.9246 30.1726 20.2362C29.716 19.5478 29.0959 18.9832 28.3677 18.593C27.6396 18.2027 26.8261 17.999 26 18H24.74C24.3318 16.3925 23.4341 14.9516 22.171 13.8767C20.908 12.8017 19.3421 12.1459 17.69 12M13 13C11.4381 13.8636 10.2098 15.2248 9.51058 16.8669C8.81136 18.509 8.68134 20.3378 9.14122 22.0623C9.60109 23.7869 10.6244 25.3081 12.0485 26.384C13.4725 27.4599 15.2154 28.0288 17 28H26C26.5798 27.9993 27.155 27.8978 27.7 27.7M8.99999 9L31 31" stroke="#1E1E1E" stroke-width="1.5" stroke-linecap="round" stroke-linejoin="round"/>
</g>
<defs>
<clipPath id="clip0_339_2285">
<rect width="24" height="24" fill="white" transform="translate(8 8)"/>
</clipPath>
</defs>
</svg>
