<svg width="40" height="40" viewBox="0 0 40 40" fill="none" xmlns="http://www.w3.org/2000/svg">
<g filter="url(#filter0_i_419_1120)">
<rect x="2" y="2" width="36" height="36" rx="18" fill="white"/>
<rect x="1" y="1" width="38" height="38" rx="19" stroke="#D6BBFC" stroke-width="2"/>
<path d="M16 14H24C25.886 14 26.828 14 27.414 14.586C28 15.172 28 16.114 28 18V22C28 25.3 28 26.95 26.975 27.975C25.95 29 24.3 29 21 29H19C15.7 29 14.05 29 13.025 27.975C12 26.95 12 25.3 12 22V18C12 16.114 12 15.172 12.586 14.586C13.172 14 14.114 14 16 14Z" stroke="black" stroke-width="1.5" stroke-linecap="round" stroke-linejoin="round"/>
<path d="M24 16.5C24 12.634 22.21 9 20 9C17.79 9 16 12.634 16 16.5" stroke="black" stroke-width="1.5" stroke-linecap="round" stroke-linejoin="round"/>
</g>
<defs>
<filter id="filter0_i_419_1120" x="0" y="0" width="40" height="44" filterUnits="userSpaceOnUse" color-interpolation-filters="sRGB">
<feFlood flood-opacity="0" result="BackgroundImageFix"/>
<feBlend mode="normal" in="SourceGraphic" in2="BackgroundImageFix" result="shape"/>
<feColorMatrix in="SourceAlpha" type="matrix" values="0 0 0 0 0 0 0 0 0 0 0 0 0 0 0 0 0 0 127 0" result="hardAlpha"/>
<feOffset dy="4"/>
<feGaussianBlur stdDeviation="7.3"/>
<feComposite in2="hardAlpha" operator="arithmetic" k2="-1" k3="1"/>
<feColorMatrix type="matrix" values="0 0 0 0 0.776923 0 0 0 0 0.768706 0 0 0 0 0.768706 0 0 0 0.25 0"/>
<feBlend mode="normal" in2="shape" result="effect1_innerShadow_419_1120"/>
</filter>
</defs>
</svg>
