<svg width="40" height="40" viewBox="0 0 40 40" fill="none" xmlns="http://www.w3.org/2000/svg">
<rect width="40" height="40" rx="12" fill="#804EC1"/>
<path d="M10.5299 22.7696C10.3173 24.1636 11.268 25.1312 12.4321 25.6134C16.8948 27.4622 23.1052 27.4622 27.5679 25.6134C28.732 25.1312 29.6827 24.1636 29.4701 22.7696C29.3394 21.9129 28.6932 21.1995 28.2144 20.5029C27.5873 19.5793 27.525 18.5718 27.5249 17.5C27.5249 13.3579 24.1559 10 20 10C15.8441 10 12.4751 13.3579 12.4751 17.5C12.475 18.5718 12.4127 19.5793 11.7856 20.5029C11.3068 21.1995 10.6606 21.9129 10.5299 22.7696Z" stroke="white" stroke-width="1.5" stroke-linecap="round" stroke-linejoin="round"/>
<path d="M16 27C16.4585 28.7252 18.0755 30 20 30C21.9245 30 23.5415 28.7252 24 27" stroke="white" stroke-width="1.5" stroke-linecap="round" stroke-linejoin="round"/>
</svg>
