<svg width="22" height="20" viewBox="0 0 22 20" fill="none" xmlns="http://www.w3.org/2000/svg">
<path d="M14.7 11.7001C14.7 12.5285 15.3716 13.2001 16.2 13.2001C17.0284 13.2001 17.7 12.5285 17.7 11.7001C17.7 10.8716 17.0284 10.2001 16.2 10.2001C15.3716 10.2001 14.7 10.8716 14.7 11.7001Z" stroke="#141B34" stroke-width="1.4"/>
<path d="M8.70001 4.70007H14.7C17.5284 4.70007 18.9427 4.70007 19.8213 5.57875C20.7 6.45743 20.7 7.87165 20.7 10.7001V12.7001C20.7 15.5285 20.7 16.9427 19.8213 17.8214C18.9427 18.7001 17.5284 18.7001 14.7 18.7001H8.70001C4.92878 18.7001 3.04316 18.7001 1.87159 17.5285C0.700012 16.3569 0.700012 14.4713 0.700012 10.7001V8.70007C0.700012 4.92884 0.700012 3.04322 1.87159 1.87165C3.04316 0.700073 4.92878 0.700073 8.70001 0.700073H12.7C13.63 0.700073 14.095 0.700073 14.4765 0.802296C15.5117 1.0797 16.3204 1.88834 16.5978 2.92362C16.7 3.30512 16.7 3.7701 16.7 4.70007" stroke="#141B34" stroke-width="1.4" stroke-linecap="round"/>
</svg>
