<svg width="366" height="215" viewBox="0 0 366 215" fill="none" xmlns="http://www.w3.org/2000/svg">
<g filter="url(#filter0_d_475_2796)">
<rect x="3.19995" y="3.19995" width="358" height="207" rx="18" fill="white"/>
<rect x="3.69995" y="3.69995" width="357" height="206" rx="17.5" stroke="#E3E3E3"/>
<rect x="138.2" y="156.2" width="88" height="31" rx="15.5" fill="#F6EFFF"/>
<path d="M169.635 169.78C169.347 169.225 168.947 168.809 168.435 168.532C167.923 168.244 167.331 168.1 166.659 168.1C165.923 168.1 165.267 168.265 164.691 168.596C164.115 168.927 163.662 169.396 163.331 170.004C163.011 170.612 162.851 171.316 162.851 172.116C162.851 172.916 163.011 173.625 163.331 174.244C163.662 174.852 164.115 175.321 164.691 175.652C165.267 175.983 165.923 176.148 166.659 176.148C167.651 176.148 168.457 175.871 169.075 175.316C169.694 174.761 170.073 174.009 170.211 173.06H166.035V171.604H172.163V173.028C172.046 173.892 171.737 174.687 171.235 175.412C170.745 176.137 170.099 176.719 169.299 177.156C168.51 177.583 167.63 177.796 166.659 177.796C165.614 177.796 164.659 177.556 163.795 177.076C162.931 176.585 162.243 175.908 161.731 175.044C161.23 174.18 160.979 173.204 160.979 172.116C160.979 171.028 161.23 170.052 161.731 169.188C162.243 168.324 162.931 167.652 163.795 167.172C164.67 166.681 165.625 166.436 166.659 166.436C167.843 166.436 168.894 166.729 169.811 167.316C170.739 167.892 171.411 168.713 171.827 169.78H169.635ZM177.786 177.844C176.954 177.844 176.202 177.657 175.53 177.284C174.858 176.9 174.33 176.367 173.946 175.684C173.562 174.991 173.37 174.191 173.37 173.284C173.37 172.388 173.568 171.593 173.962 170.9C174.357 170.207 174.896 169.673 175.578 169.3C176.261 168.927 177.024 168.74 177.866 168.74C178.709 168.74 179.472 168.927 180.154 169.3C180.837 169.673 181.376 170.207 181.77 170.9C182.165 171.593 182.362 172.388 182.362 173.284C182.362 174.18 182.16 174.975 181.754 175.668C181.349 176.361 180.794 176.9 180.09 177.284C179.397 177.657 178.629 177.844 177.786 177.844ZM177.786 176.26C178.256 176.26 178.693 176.148 179.098 175.924C179.514 175.7 179.85 175.364 180.106 174.916C180.362 174.468 180.49 173.924 180.49 173.284C180.49 172.644 180.368 172.105 180.122 171.668C179.877 171.22 179.552 170.884 179.146 170.66C178.741 170.436 178.304 170.324 177.834 170.324C177.365 170.324 176.928 170.436 176.522 170.66C176.128 170.884 175.813 171.22 175.578 171.668C175.344 172.105 175.226 172.644 175.226 173.284C175.226 174.233 175.466 174.969 175.946 175.492C176.437 176.004 177.05 176.26 177.786 176.26ZM187.99 177.844C187.158 177.844 186.406 177.657 185.734 177.284C185.062 176.9 184.534 176.367 184.15 175.684C183.766 174.991 183.574 174.191 183.574 173.284C183.574 172.388 183.771 171.593 184.166 170.9C184.56 170.207 185.099 169.673 185.782 169.3C186.464 168.927 187.227 168.74 188.07 168.74C188.912 168.74 189.675 168.927 190.358 169.3C191.04 169.673 191.579 170.207 191.974 170.9C192.368 171.593 192.566 172.388 192.566 173.284C192.566 174.18 192.363 174.975 191.958 175.668C191.552 176.361 190.998 176.9 190.294 177.284C189.6 177.657 188.832 177.844 187.99 177.844ZM187.99 176.26C188.459 176.26 188.896 176.148 189.302 175.924C189.718 175.7 190.054 175.364 190.31 174.916C190.566 174.468 190.694 173.924 190.694 173.284C190.694 172.644 190.571 172.105 190.326 171.668C190.08 171.22 189.755 170.884 189.35 170.66C188.944 170.436 188.507 170.324 188.038 170.324C187.568 170.324 187.131 170.436 186.726 170.66C186.331 170.884 186.016 171.22 185.782 171.668C185.547 172.105 185.43 172.644 185.43 173.284C185.43 174.233 185.67 174.969 186.15 175.492C186.64 176.004 187.254 176.26 187.99 176.26ZM193.761 173.252C193.761 172.367 193.942 171.583 194.305 170.9C194.678 170.217 195.179 169.689 195.809 169.316C196.449 168.932 197.158 168.74 197.937 168.74C198.513 168.74 199.078 168.868 199.633 169.124C200.198 169.369 200.646 169.7 200.977 170.116V165.86H202.817V177.7H200.977V176.372C200.678 176.799 200.262 177.151 199.729 177.428C199.206 177.705 198.603 177.844 197.921 177.844C197.153 177.844 196.449 177.652 195.809 177.268C195.179 176.873 194.678 176.329 194.305 175.636C193.942 174.932 193.761 174.137 193.761 173.252ZM200.977 173.284C200.977 172.676 200.849 172.148 200.593 171.7C200.347 171.252 200.022 170.911 199.617 170.676C199.211 170.441 198.774 170.324 198.305 170.324C197.835 170.324 197.398 170.441 196.993 170.676C196.587 170.9 196.257 171.236 196.001 171.684C195.755 172.121 195.633 172.644 195.633 173.252C195.633 173.86 195.755 174.393 196.001 174.852C196.257 175.311 196.587 175.663 196.993 175.908C197.409 176.143 197.846 176.26 198.305 176.26C198.774 176.26 199.211 176.143 199.617 175.908C200.022 175.673 200.347 175.332 200.593 174.884C200.849 174.425 200.977 173.892 200.977 173.284Z" fill="#252525"/>
<path d="M181.9 19.2C219.746 19.2 256.043 34.2344 282.804 60.9958L283.43 61.6246C309.8 88.3243 324.6 124.349 324.6 161.9H283.238C283.238 135.024 272.561 109.248 253.556 90.2436C234.552 71.2391 208.776 60.5623 181.9 60.5623C155.024 60.5623 129.248 71.2391 110.244 90.2436C91.2391 109.248 80.5623 135.024 80.5623 161.9H39.2C39.2 124.054 54.2344 87.7573 80.9958 60.9958C107.757 34.2344 144.054 19.2 181.9 19.2Z" fill="url(#paint0_linear_475_2796)"/>
<path d="M107.29 151.187C107.29 151.074 107.29 150.962 107.291 150.85C107.292 150.659 107.447 150.505 107.637 150.506C107.827 150.507 107.981 150.663 107.98 150.853C107.98 150.964 107.979 151.075 107.979 151.187C107.979 151.377 107.825 151.531 107.635 151.531C107.444 151.531 107.29 151.377 107.29 151.187ZM257.573 151.187C257.573 151.075 257.573 150.964 257.572 150.853C257.572 150.663 257.725 150.507 257.916 150.506C258.106 150.505 258.261 150.659 258.262 150.85C258.262 150.962 258.263 151.074 258.263 151.187C258.263 151.377 258.108 151.531 257.918 151.531C257.727 151.531 257.573 151.377 257.573 151.187ZM108.066 143.145C108.255 143.164 108.392 143.334 108.373 143.523C108.35 143.744 108.328 143.966 108.307 144.187C108.289 144.377 108.122 144.516 107.932 144.498C107.743 144.481 107.603 144.312 107.621 144.123C107.642 143.899 107.664 143.675 107.687 143.452C107.707 143.263 107.876 143.125 108.066 143.145ZM257.487 143.145C257.676 143.125 257.846 143.263 257.865 143.452C257.888 143.675 257.91 143.899 257.931 144.123C257.949 144.312 257.81 144.481 257.62 144.498C257.431 144.516 257.263 144.377 257.245 144.187C257.224 143.966 257.203 143.744 257.18 143.523C257.161 143.334 257.298 143.164 257.487 143.145ZM109.213 135.861C109.4 135.899 109.52 136.081 109.482 136.267C109.438 136.485 109.395 136.704 109.352 136.922C109.316 137.109 109.135 137.231 108.948 137.195C108.761 137.158 108.639 136.977 108.676 136.79C108.718 136.57 108.762 136.35 108.807 136.13C108.845 135.943 109.027 135.823 109.213 135.861ZM256.339 135.861C256.526 135.823 256.708 135.943 256.746 136.13C256.791 136.35 256.834 136.57 256.877 136.791C256.913 136.978 256.791 137.158 256.604 137.195C256.418 137.231 256.237 137.109 256.2 136.922C256.158 136.704 256.115 136.485 256.071 136.267C256.033 136.081 256.153 135.899 256.339 135.861ZM111.069 128.724C111.251 128.78 111.354 128.973 111.298 129.155C111.232 129.368 111.167 129.581 111.104 129.794C111.049 129.976 110.857 130.08 110.675 130.026C110.493 129.971 110.389 129.779 110.443 129.597C110.508 129.382 110.572 129.166 110.639 128.952C110.695 128.77 110.888 128.668 111.069 128.724ZM254.483 128.724C254.665 128.668 254.858 128.77 254.914 128.952C254.98 129.166 255.045 129.382 255.109 129.597C255.164 129.779 255.06 129.971 254.878 130.026C254.695 130.08 254.503 129.976 254.449 129.794C254.385 129.581 254.32 129.368 254.255 129.155C254.199 128.973 254.301 128.78 254.483 128.724ZM113.166 121.989C113.239 121.813 113.441 121.731 113.617 121.804C113.792 121.878 113.875 122.08 113.801 122.255C113.715 122.461 113.63 122.666 113.546 122.872C113.474 123.048 113.273 123.133 113.097 123.061C112.92 122.988 112.836 122.787 112.908 122.611C112.993 122.403 113.079 122.196 113.166 121.989ZM251.936 121.804C252.111 121.731 252.313 121.813 252.387 121.989C252.474 122.196 252.56 122.403 252.645 122.611C252.717 122.787 252.632 122.988 252.456 123.061C252.28 123.133 252.078 123.048 252.006 122.872C251.922 122.666 251.837 122.461 251.751 122.255C251.678 122.08 251.76 121.878 251.936 121.804ZM116.363 115.306C116.453 115.139 116.662 115.076 116.829 115.166C116.997 115.257 117.06 115.466 116.97 115.634C116.864 115.829 116.758 116.026 116.654 116.223C116.565 116.391 116.357 116.455 116.189 116.366C116.02 116.277 115.956 116.069 116.045 115.9C116.15 115.702 116.256 115.503 116.363 115.306ZM248.723 115.166C248.89 115.076 249.099 115.139 249.19 115.306C249.296 115.504 249.402 115.702 249.507 115.9C249.596 116.069 249.532 116.277 249.364 116.366C249.196 116.455 248.987 116.391 248.898 116.223C248.794 116.026 248.689 115.829 248.584 115.634C248.493 115.466 248.556 115.257 248.723 115.166ZM120.199 108.969C120.305 108.812 120.52 108.77 120.678 108.876C120.835 108.982 120.877 109.197 120.77 109.355C120.646 109.539 120.522 109.724 120.4 109.91C120.294 110.068 120.081 110.112 119.922 110.007C119.764 109.902 119.72 109.688 119.825 109.53C119.948 109.342 120.073 109.156 120.199 108.969ZM244.875 108.876C245.033 108.77 245.247 108.812 245.354 108.969C245.479 109.156 245.604 109.342 245.728 109.53C245.833 109.688 245.789 109.902 245.63 110.007C245.472 110.112 245.258 110.069 245.153 109.91C245.03 109.724 244.907 109.539 244.782 109.355C244.676 109.197 244.717 108.982 244.875 108.876ZM124.639 103.039C124.76 102.893 124.978 102.872 125.124 102.993C125.271 103.115 125.291 103.332 125.169 103.479C125.027 103.65 124.886 103.822 124.746 103.994C124.626 104.142 124.409 104.165 124.261 104.045C124.113 103.925 124.091 103.707 124.211 103.56C124.353 103.385 124.496 103.212 124.639 103.039ZM240.428 102.993C240.575 102.872 240.792 102.893 240.914 103.039C241.057 103.212 241.2 103.385 241.341 103.56C241.461 103.707 241.439 103.925 241.291 104.045C241.144 104.165 240.927 104.142 240.807 103.994C240.666 103.822 240.525 103.65 240.383 103.479C240.262 103.332 240.282 103.115 240.428 102.993ZM129.639 97.572C129.774 97.4382 129.992 97.4389 130.126 97.574C130.26 97.7092 130.259 97.9274 130.123 98.0614L129.651 98.534C129.517 98.6691 129.299 98.6707 129.163 98.5367C129.028 98.4027 129.027 98.1838 129.161 98.0486C129.241 97.9688 129.32 97.8897 129.4 97.8103C129.479 97.7308 129.559 97.6511 129.639 97.572ZM235.426 97.574C235.56 97.4388 235.779 97.438 235.914 97.572L236.391 98.0486C236.525 98.1838 236.524 98.4027 236.389 98.5367C236.254 98.6707 236.036 98.6692 235.902 98.534L235.429 98.0614C235.294 97.9274 235.292 97.7092 235.426 97.574ZM135.149 92.6218C135.297 92.5017 135.514 92.5239 135.634 92.6716C135.754 92.8193 135.732 93.0363 135.584 93.1564C135.411 93.2966 135.24 93.4379 135.068 93.5798C134.922 93.7012 134.704 93.6812 134.583 93.5347C134.461 93.3881 134.482 93.1707 134.629 93.0493C134.802 92.9061 134.975 92.7634 135.149 92.6218ZM229.918 92.6716C230.038 92.5239 230.256 92.5017 230.404 92.6218C230.578 92.7634 230.751 92.9061 230.924 93.0493C231.071 93.1707 231.091 93.3881 230.97 93.5347C230.848 93.6812 230.631 93.7012 230.484 93.5798C230.313 93.4379 230.141 93.2966 229.969 93.1564C229.821 93.0363 229.798 92.8193 229.918 92.6716ZM141.119 88.2351C141.278 88.1304 141.491 88.1741 141.596 88.3328C141.701 88.4914 141.658 88.705 141.499 88.8101C141.314 88.9328 141.129 89.0566 140.944 89.181C140.786 89.2874 140.573 89.2458 140.466 89.0881C140.36 88.9303 140.401 88.7159 140.559 88.6095C140.745 88.4839 140.932 88.359 141.119 88.2351ZM223.956 88.3328C224.061 88.1741 224.275 88.1304 224.433 88.2351C224.621 88.359 224.807 88.4839 224.994 88.6095C225.151 88.7159 225.193 88.9303 225.087 89.0881C224.981 89.2459 224.766 89.2874 224.608 89.181C224.424 89.0566 224.239 88.9328 224.053 88.8101C223.895 88.705 223.851 88.4914 223.956 88.3328ZM147.49 84.4557C147.658 84.3668 147.867 84.4309 147.956 84.5991C148.045 84.7673 147.98 84.9759 147.812 85.065C147.616 85.169 147.419 85.2736 147.223 85.3794C147.056 85.4699 146.846 85.4075 146.756 85.24C146.666 85.0726 146.729 84.8639 146.896 84.7735C147.093 84.6668 147.291 84.5606 147.49 84.4557ZM217.597 84.5991C217.686 84.4309 217.895 84.3668 218.063 84.4557C218.261 84.5607 218.46 84.6667 218.657 84.7735C218.824 84.864 218.887 85.0727 218.797 85.24C218.706 85.4074 218.497 85.4703 218.329 85.38C218.134 85.2743 217.937 85.169 217.74 85.065C217.572 84.9759 217.508 84.7673 217.597 84.5991ZM154.2 81.3185C154.377 81.2465 154.578 81.3308 154.65 81.507C154.722 81.6832 154.638 81.8847 154.462 81.9567C154.256 82.041 154.05 82.1259 153.845 82.2119C153.669 82.2855 153.467 82.2029 153.394 82.0274C153.32 81.8519 153.403 81.65 153.578 81.5764C153.785 81.4896 153.993 81.4035 154.2 81.3185ZM210.903 81.507C210.975 81.3308 211.176 81.2465 211.352 81.3185C211.56 81.4035 211.767 81.4896 211.974 81.5764C212.15 81.65 212.232 81.8519 212.159 82.0274C212.085 82.2029 211.883 82.2855 211.708 82.2119C211.503 82.1259 211.297 82.041 211.091 81.9567C210.915 81.8847 210.831 81.6832 210.903 81.507ZM161.186 78.8539C161.369 78.7995 161.561 78.9031 161.615 79.0855C161.67 79.2679 161.566 79.4598 161.384 79.5143C161.17 79.578 160.957 79.6427 160.745 79.7082C160.563 79.7643 160.37 79.6619 160.314 79.48C160.258 79.2982 160.36 79.1052 160.541 79.0491C160.756 78.983 160.971 78.9181 161.186 78.8539ZM204.366 78.8539C204.581 78.9181 204.797 78.983 205.011 79.0491C205.193 79.1052 205.295 79.2982 205.239 79.48C205.183 79.6619 204.99 79.7643 204.808 79.7082C204.595 79.6427 204.382 79.578 204.169 79.5143C203.987 79.4598 203.883 79.2679 203.937 79.0855C203.992 78.9031 204.184 78.7995 204.366 78.8539ZM168.38 77.086C168.567 77.0499 168.748 77.1719 168.784 77.3587C168.82 77.5454 168.698 77.7263 168.512 77.7626C168.293 77.8051 168.074 77.8482 167.856 77.8925C167.67 77.9304 167.489 77.8102 167.451 77.6239C167.413 77.4374 167.533 77.2553 167.719 77.2173C167.939 77.1725 168.16 77.1289 168.38 77.086ZM197.172 77.086C197.393 77.1289 197.613 77.1725 197.833 77.2173C198.02 77.2553 198.14 77.4374 198.102 77.6239C198.064 77.8102 197.882 77.9304 197.696 77.8925C197.478 77.8482 197.259 77.8051 197.041 77.7626C196.854 77.7263 196.732 77.5454 196.768 77.3587C196.805 77.1719 196.986 77.0499 197.172 77.086ZM175.712 76.0318C175.902 76.014 176.07 76.1533 176.088 76.3428C176.106 76.5322 175.966 76.7 175.777 76.7178C175.555 76.7386 175.334 76.7603 175.112 76.7831C174.923 76.8025 174.754 76.6653 174.734 76.4761C174.715 76.2868 174.852 76.1174 175.042 76.0978C175.265 76.0748 175.489 76.0528 175.712 76.0318ZM189.84 76.0318C190.064 76.0528 190.288 76.0748 190.511 76.0978C190.7 76.1174 190.838 76.2868 190.818 76.4761C190.799 76.6653 190.629 76.8025 190.44 76.7831C190.219 76.7603 189.997 76.7386 189.776 76.7178C189.586 76.7 189.447 76.5322 189.465 76.3428C189.482 76.1533 189.651 76.014 189.84 76.0318ZM183.114 75.7012C183.304 75.7021 183.458 75.8571 183.457 76.0473C183.456 76.2376 183.301 76.3915 183.11 76.3906C182.999 76.3901 182.888 76.3899 182.776 76.3899C182.665 76.3899 182.554 76.3901 182.442 76.3906C182.252 76.3915 182.097 76.2376 182.096 76.0473C182.095 75.8571 182.249 75.7021 182.439 75.7012C182.551 75.7007 182.664 75.7006 182.776 75.7006C182.889 75.7006 183.001 75.7007 183.114 75.7012Z" fill="url(#paint1_linear_475_2796)"/>
<path d="M181.836 19.2C219.669 19.2 255.95 34.2372 282.699 60.9999L253.444 90.2396C234.45 71.2363 208.692 60.5623 181.836 60.5623C154.98 60.5623 129.222 71.2364 110.229 90.2396C91.2351 109.243 80.5623 135.02 80.5623 161.9H39.2C39.2 124.057 54.2253 87.7621 80.9736 60.9999C107.722 34.2373 144.003 19.2 181.836 19.2Z" fill="url(#paint2_linear_475_2796)"/>
<path d="M283.767 61.7807L254.124 91.4237L251.687 88.9866L281.33 59.3436L283.767 61.7807Z" fill="white"/>
<path d="M55.976 175.94C55.976 174.325 56.2467 173.065 56.788 172.16C57.3387 171.245 58.2813 170.788 59.616 170.788C60.9507 170.788 61.8887 171.245 62.43 172.16C62.9807 173.065 63.256 174.325 63.256 175.94C63.256 177.573 62.9807 178.852 62.43 179.776C61.8887 180.69 60.9507 181.148 59.616 181.148C58.2813 181.148 57.3387 180.69 56.788 179.776C56.2467 178.852 55.976 177.573 55.976 175.94ZM61.688 175.94C61.688 175.184 61.6367 174.544 61.534 174.022C61.4407 173.499 61.2447 173.074 60.946 172.748C60.6473 172.412 60.204 172.244 59.616 172.244C59.028 172.244 58.5847 172.412 58.286 172.748C57.9873 173.074 57.7867 173.499 57.684 174.022C57.5907 174.544 57.544 175.184 57.544 175.94C57.544 176.724 57.5907 177.382 57.684 177.914C57.7773 178.446 57.9733 178.875 58.272 179.202C58.58 179.528 59.028 179.692 59.616 179.692C60.204 179.692 60.6473 179.528 60.946 179.202C61.254 178.875 61.4547 178.446 61.548 177.914C61.6413 177.382 61.688 176.724 61.688 175.94Z" fill="#585858"/>
<path d="M291.909 173.874V172.418H294.821V182.624H293.211V173.874H291.909ZM297.014 177.388C297.014 175.774 297.284 174.514 297.826 173.608C298.376 172.694 299.319 172.236 300.654 172.236C301.988 172.236 302.926 172.694 303.468 173.608C304.018 174.514 304.294 175.774 304.294 177.388C304.294 179.022 304.018 180.3 303.468 181.224C302.926 182.139 301.988 182.596 300.654 182.596C299.319 182.596 298.376 182.139 297.826 181.224C297.284 180.3 297.014 179.022 297.014 177.388ZM302.726 177.388C302.726 176.632 302.674 175.993 302.572 175.47C302.478 174.948 302.282 174.523 301.984 174.196C301.685 173.86 301.242 173.692 300.654 173.692C300.066 173.692 299.622 173.86 299.324 174.196C299.025 174.523 298.824 174.948 298.722 175.47C298.628 175.993 298.582 176.632 298.582 177.388C298.582 178.172 298.628 178.83 298.722 179.362C298.815 179.894 299.011 180.324 299.31 180.65C299.618 180.977 300.066 181.14 300.654 181.14C301.242 181.14 301.685 180.977 301.984 180.65C302.292 180.324 302.492 179.894 302.586 179.362C302.679 178.83 302.726 178.172 302.726 177.388ZM305.982 177.388C305.982 175.774 306.253 174.514 306.794 173.608C307.345 172.694 308.288 172.236 309.622 172.236C310.957 172.236 311.895 172.694 312.436 173.608C312.987 174.514 313.262 175.774 313.262 177.388C313.262 179.022 312.987 180.3 312.436 181.224C311.895 182.139 310.957 182.596 309.622 182.596C308.288 182.596 307.345 182.139 306.794 181.224C306.253 180.3 305.982 179.022 305.982 177.388ZM311.694 177.388C311.694 176.632 311.643 175.993 311.54 175.47C311.447 174.948 311.251 174.523 310.952 174.196C310.654 173.86 310.21 173.692 309.622 173.692C309.034 173.692 308.591 173.86 308.292 174.196C307.994 174.523 307.793 174.948 307.69 175.47C307.597 175.993 307.55 176.632 307.55 177.388C307.55 178.172 307.597 178.83 307.69 179.362C307.784 179.894 307.98 180.324 308.278 180.65C308.586 180.977 309.034 181.14 309.622 181.14C310.21 181.14 310.654 180.977 310.952 180.65C311.26 180.324 311.461 179.894 311.554 179.362C311.648 178.83 311.694 178.172 311.694 177.388Z" fill="#585858"/>
<path d="M157.5 118.304C155.1 117.056 153.9 115.124 153.9 112.508C153.9 111.212 154.224 110.036 154.872 108.98C155.544 107.9 156.54 107.048 157.86 106.424C159.204 105.776 160.836 105.452 162.756 105.452C164.676 105.452 166.296 105.776 167.616 106.424C168.96 107.048 169.956 107.9 170.604 108.98C171.276 110.036 171.612 111.212 171.612 112.508C171.612 113.828 171.288 114.992 170.64 116C169.992 116.984 169.128 117.752 168.048 118.304C169.368 118.88 170.4 119.72 171.144 120.824C171.888 121.928 172.26 123.236 172.26 124.748C172.26 126.38 171.84 127.808 171 129.032C170.184 130.232 169.056 131.156 167.616 131.804C166.176 132.452 164.556 132.776 162.756 132.776C160.956 132.776 159.336 132.452 157.896 131.804C156.48 131.156 155.352 130.232 154.512 129.032C153.696 127.808 153.288 126.38 153.288 124.748C153.288 123.236 153.66 121.928 154.404 120.824C155.148 119.696 156.18 118.856 157.5 118.304ZM166.716 113.228C166.716 112.052 166.356 111.14 165.636 110.492C164.94 109.844 163.98 109.52 162.756 109.52C161.556 109.52 160.596 109.844 159.876 110.492C159.18 111.14 158.832 112.064 158.832 113.264C158.832 114.344 159.192 115.208 159.912 115.856C160.656 116.504 161.604 116.828 162.756 116.828C163.908 116.828 164.856 116.504 165.6 115.856C166.344 115.184 166.716 114.308 166.716 113.228ZM162.756 120.5C161.388 120.5 160.272 120.848 159.408 121.544C158.568 122.24 158.148 123.236 158.148 124.532C158.148 125.732 158.556 126.716 159.372 127.484C160.212 128.228 161.34 128.6 162.756 128.6C164.172 128.6 165.288 128.216 166.104 127.448C166.92 126.68 167.328 125.708 167.328 124.532C167.328 123.26 166.908 122.276 166.068 121.58C165.228 120.86 164.124 120.5 162.756 120.5ZM176.313 112.868C176.433 110.468 177.273 108.62 178.833 107.324C180.417 106.004 182.493 105.344 185.061 105.344C186.813 105.344 188.313 105.656 189.561 106.28C190.809 106.88 191.745 107.708 192.369 108.764C193.017 109.796 193.341 110.972 193.341 112.292C193.341 113.804 192.945 115.088 192.153 116.144C191.385 117.176 190.461 117.872 189.381 118.232V118.376C190.773 118.808 191.853 119.576 192.621 120.68C193.413 121.784 193.809 123.2 193.809 124.928C193.809 126.368 193.473 127.652 192.801 128.78C192.153 129.908 191.181 130.796 189.885 131.444C188.613 132.068 187.077 132.38 185.277 132.38C182.565 132.38 180.357 131.696 178.653 130.328C176.949 128.96 176.049 126.944 175.953 124.28H180.849C180.897 125.456 181.293 126.404 182.037 127.124C182.805 127.82 183.849 128.168 185.169 128.168C186.393 128.168 187.329 127.832 187.977 127.16C188.649 126.464 188.985 125.576 188.985 124.496C188.985 123.056 188.529 122.024 187.617 121.4C186.705 120.776 185.289 120.464 183.369 120.464H182.325V116.324H183.369C186.777 116.324 188.481 115.184 188.481 112.904C188.481 111.872 188.169 111.068 187.545 110.492C186.945 109.916 186.069 109.628 184.917 109.628C183.789 109.628 182.913 109.94 182.289 110.564C181.689 111.164 181.341 111.932 181.245 112.868H176.313ZM197.216 112.4C197.216 110.576 197.744 109.148 198.8 108.116C199.88 107.084 201.26 106.568 202.94 106.568C204.62 106.568 205.988 107.084 207.044 108.116C208.124 109.148 208.664 110.576 208.664 112.4C208.664 114.248 208.124 115.688 207.044 116.72C205.988 117.752 204.62 118.268 202.94 118.268C201.26 118.268 199.88 117.752 198.8 116.72C197.744 115.688 197.216 114.248 197.216 112.4ZM220.328 107L206.18 132.2H201.284L215.396 107H220.328ZM202.904 109.592C201.584 109.592 200.924 110.528 200.924 112.4C200.924 114.296 201.584 115.244 202.904 115.244C203.552 115.244 204.056 115.016 204.416 114.56C204.776 114.08 204.956 113.36 204.956 112.4C204.956 110.528 204.272 109.592 202.904 109.592ZM213.02 126.764C213.02 124.916 213.548 123.488 214.604 122.48C215.684 121.448 217.064 120.932 218.744 120.932C220.424 120.932 221.78 121.448 222.812 122.48C223.868 123.488 224.396 124.916 224.396 126.764C224.396 128.612 223.868 130.052 222.812 131.084C221.78 132.116 220.424 132.632 218.744 132.632C217.04 132.632 215.66 132.116 214.604 131.084C213.548 130.052 213.02 128.612 213.02 126.764ZM218.708 123.956C217.34 123.956 216.656 124.892 216.656 126.764C216.656 128.66 217.34 129.608 218.708 129.608C220.052 129.608 220.724 128.66 220.724 126.764C220.724 124.892 220.052 123.956 218.708 123.956Z" fill="#252525"/>
</g>
<defs>
<filter id="filter0_d_475_2796" x="-4.88758e-05" y="-4.88758e-05" width="365.4" height="214.4" filterUnits="userSpaceOnUse" color-interpolation-filters="sRGB">
<feFlood flood-opacity="0" result="BackgroundImageFix"/>
<feColorMatrix in="SourceAlpha" type="matrix" values="0 0 0 0 0 0 0 0 0 0 0 0 0 0 0 0 0 0 127 0" result="hardAlpha"/>
<feOffset dx="0.5" dy="0.5"/>
<feGaussianBlur stdDeviation="1.85"/>
<feComposite in2="hardAlpha" operator="out"/>
<feColorMatrix type="matrix" values="0 0 0 0 0.915385 0 0 0 0 0.915385 0 0 0 0 0.915385 0 0 0 0.3 0"/>
<feBlend mode="normal" in2="BackgroundImageFix" result="effect1_dropShadow_475_2796"/>
<feBlend mode="normal" in="SourceGraphic" in2="effect1_dropShadow_475_2796" result="shape"/>
</filter>
<linearGradient id="paint0_linear_475_2796" x1="324.6" y1="90.55" x2="39.2" y2="90.55" gradientUnits="userSpaceOnUse">
<stop offset="0.850962" stop-color="#B98EF1"/>
<stop offset="1" stop-color="#9747FF"/>
</linearGradient>
<linearGradient id="paint1_linear_475_2796" x1="182.776" y1="76.0452" x2="182.776" y2="151.187" gradientUnits="userSpaceOnUse">
<stop stop-color="#7319E7"/>
<stop offset="1" stop-color="#804EC1"/>
</linearGradient>
<linearGradient id="paint2_linear_475_2796" x1="160.95" y1="19.2" x2="160.95" y2="161.9" gradientUnits="userSpaceOnUse">
<stop stop-color="#804EC1"/>
<stop offset="1" stop-color="#B886F8"/>
</linearGradient>
</defs>
</svg>
