<svg width="21" height="21" viewBox="0 0 21 21" fill="none" xmlns="http://www.w3.org/2000/svg">
<path d="M12.9731 7.42682L7.2 13.2M12.9731 7.42682C12.4678 6.92151 10.0846 7.4166 9.36492 7.42682M12.9731 7.42682C13.4784 7.93214 12.9833 10.3154 12.9731 11.035" stroke="#804EC1" stroke-width="1.4" stroke-linecap="round" stroke-linejoin="round"/>
<path d="M0.699997 10.2C0.699997 5.72161 0.699997 3.48244 2.09124 2.09119C3.48248 0.699951 5.72165 0.699951 10.2 0.699951C14.6783 0.699951 16.9175 0.699951 18.3088 2.09119C19.7 3.48244 19.7 5.72161 19.7 10.2C19.7 14.6783 19.7 16.9175 18.3088 18.3087C16.9175 19.7 14.6783 19.7 10.2 19.7C5.72165 19.7 3.48248 19.7 2.09124 18.3087C0.699997 16.9175 0.699997 14.6783 0.699997 10.2Z" stroke="#804EC1" stroke-width="1.4"/>
</svg>
