<svg width="22" height="22" viewBox="0 0 22 22" fill="none" xmlns="http://www.w3.org/2000/svg">
<path d="M20.4898 11C20.4898 8.56366 20.4889 6.81238 20.3097 5.47946C20.1335 4.16823 19.7977 3.37508 19.2113 2.7887C18.625 2.20239 17.8318 1.86656 16.5205 1.69028C15.1875 1.5111 13.4359 1.5102 11 1.5102C8.56366 1.5102 6.81238 1.51113 5.47946 1.69028C4.16823 1.86654 3.37508 2.20232 2.7887 2.7887C2.20239 3.37502 1.86656 4.16816 1.69028 5.47946C1.5111 6.81255 1.5102 8.56411 1.5102 11C1.5102 13.4363 1.51113 15.1876 1.69028 16.5205C1.86654 17.8318 2.20232 18.6249 2.7887 19.2113C3.37502 19.7976 4.16816 20.1334 5.47946 20.3097C6.81255 20.4889 8.56411 20.4898 11 20.4898C13.4363 20.4898 15.1876 20.4889 16.5205 20.3097C17.8318 20.1335 18.6249 19.7977 19.2113 19.2113C19.7976 18.625 20.1334 17.8318 20.3097 16.5205C20.4889 15.1875 20.4898 13.4359 20.4898 11ZM22 11C22 13.3932 22.001 15.2647 21.8052 16.7217C21.6064 18.2002 21.1918 19.3645 20.2781 20.2781C19.3644 21.1918 18.2003 21.6064 16.7217 21.8052C15.2648 22.001 13.3937 22 11 22C8.60677 22 6.73535 22.001 5.27832 21.8052C3.7998 21.6064 2.63552 21.1918 1.72188 20.2781C0.808189 19.3644 0.393589 18.2003 0.19483 16.7217C-0.0010039 15.2648 1.04845e-07 13.3937 1.04845e-07 11C1.04845e-07 8.60677 -0.00100851 6.73535 0.19483 5.27832C0.393598 3.7998 0.80823 2.63552 1.72188 1.72188C2.63556 0.808189 3.7997 0.393589 5.27832 0.19483C6.73521 -0.00100383 8.60627 1.04845e-07 11 1.04845e-07C13.3932 1.04845e-07 15.2647 -0.00100851 16.7217 0.19483C18.2002 0.393598 19.3645 0.80823 20.2781 1.72188C21.1918 2.63556 21.6064 3.7997 21.8052 5.27832C22.001 6.73521 22 8.60627 22 11Z" fill="#141B34"/>
<path d="M8.08807 6.14694C8.08819 5.73013 8.42633 5.39185 8.84317 5.39185C9.26001 5.39185 9.59815 5.73013 9.59827 6.14694V14.8216C9.59827 15.1164 9.59951 15.3976 9.57826 15.6104C9.56754 15.7178 9.54607 15.8584 9.49401 15.998C9.44035 16.1418 9.32802 16.3504 9.09171 16.4887L9.0896 16.4908C8.82178 16.6463 8.53102 16.6331 8.30291 16.534C8.12233 16.4555 7.99555 16.3308 7.92694 16.2581C7.78596 16.1087 7.63121 15.8881 7.48989 15.6884V15.6873L6.07027 13.6842C5.82926 13.344 5.91016 12.8721 6.25035 12.6311C6.59051 12.3905 7.06152 12.4711 7.30243 12.8112L8.08807 13.9191V6.14694ZM12.4017 15.8526V7.17796C12.4017 6.88351 12.4005 6.60298 12.4217 6.39022C12.4324 6.28284 12.4539 6.14125 12.506 6.00161C12.5597 5.85779 12.6721 5.64909 12.9083 5.51085L13.0115 5.45925C13.2498 5.35876 13.4973 5.3798 13.6971 5.46662C13.8775 5.54504 14.0044 5.66878 14.073 5.74149C14.2139 5.89067 14.3679 6.11164 14.509 6.31123L15.9297 8.3164C16.1706 8.65658 16.0898 9.12752 15.7496 9.36849C15.4095 9.60924 14.9386 9.52935 14.6976 9.18945L13.9119 8.0805V15.8526C13.9119 16.2696 13.5737 16.6077 13.1568 16.6077C12.7399 16.6077 12.4017 16.2696 12.4017 15.8526Z" fill="#141B34"/>
</svg>
