<svg width="22" height="21" viewBox="0 0 22 21" fill="none" xmlns="http://www.w3.org/2000/svg">
<path fill-rule="evenodd" clip-rule="evenodd" d="M0 0.75C0 0.551088 0.0790177 0.360322 0.21967 0.21967C0.360322 0.0790177 0.551088 0 0.75 0H20.75C20.9489 0 21.1397 0.0790177 21.2803 0.21967C21.421 0.360322 21.5 0.551088 21.5 0.75C21.5 0.948912 21.421 1.13968 21.2803 1.28033C21.1397 1.42098 20.9489 1.5 20.75 1.5H19.5V11.176C19.5 12.363 19.501 13.189 19.165 13.929C18.828 14.669 18.207 15.213 17.313 15.994L17.195 16.097L15.157 17.879C14.247 18.674 13.512 19.317 12.861 19.755C12.183 20.211 11.52 20.5 10.75 20.5C9.98 20.5 9.317 20.211 8.639 19.755C7.988 19.317 7.252 18.674 6.343 17.879L4.305 16.097L4.187 15.994C3.293 15.213 2.671 14.67 2.335 13.929C1.999 13.188 1.999 12.363 2 11.176V1.5H0.75C0.551088 1.5 0.360322 1.42098 0.21967 1.28033C0.0790177 1.13968 0 0.948912 0 0.75ZM3.5 1.5V11.02C3.5 12.427 3.516 12.9 3.701 13.309C3.886 13.717 4.233 14.041 5.293 14.968L7.293 16.716C8.249 17.552 8.913 18.132 9.477 18.51C10.022 18.877 10.392 19 10.75 19C11.108 19 11.478 18.878 12.024 18.51C12.587 18.132 13.251 17.552 14.207 16.716L16.207 14.968C17.267 14.041 17.614 13.718 17.799 13.309C17.984 12.901 18 12.427 18 11.02V1.5H3.5ZM6.5 6.75C6.5 6.55109 6.57902 6.36032 6.71967 6.21967C6.86032 6.07902 7.05109 6 7.25 6H14.25C14.4489 6 14.6397 6.07902 14.7803 6.21967C14.921 6.36032 15 6.55109 15 6.75C15 6.94891 14.921 7.13968 14.7803 7.28033C14.6397 7.42098 14.4489 7.5 14.25 7.5H7.25C7.05109 7.5 6.86032 7.42098 6.71967 7.28033C6.57902 7.13968 6.5 6.94891 6.5 6.75ZM6.5 11.75C6.5 11.5511 6.57902 11.3603 6.71967 11.2197C6.86032 11.079 7.05109 11 7.25 11H14.25C14.4489 11 14.6397 11.079 14.7803 11.2197C14.921 11.3603 15 11.5511 15 11.75C15 11.9489 14.921 12.1397 14.7803 12.2803C14.6397 12.421 14.4489 12.5 14.25 12.5H7.25C7.05109 12.5 6.86032 12.421 6.71967 12.2803C6.57902 12.1397 6.5 11.9489 6.5 11.75Z" fill="#804EC1"/>
</svg>
