<svg width="358" height="204" viewBox="0 0 358 204" fill="none" xmlns="http://www.w3.org/2000/svg">
<rect width="358" height="204" rx="16" fill="url(#paint0_linear_339_2241)"/>
<mask id="mask0_339_2241" style="mask-type:alpha" maskUnits="userSpaceOnUse" x="0" y="0" width="358" height="204">
<rect width="358" height="204" rx="16" fill="#ED713C"/>
</mask>
<g mask="url(#mask0_339_2241)">
<ellipse opacity="0.1" cx="24.5" cy="213" rx="160.5" ry="113" fill="black"/>
<ellipse opacity="0.08" cx="284.5" cy="-13" rx="160.5" ry="113" fill="#1C1C1C"/>
</g>
<path d="M286.772 171.764C286.772 170.149 287.042 168.889 287.584 167.984C288.134 167.069 289.077 166.612 290.412 166.612C291.746 166.612 292.684 167.069 293.226 167.984C293.776 168.889 294.052 170.149 294.052 171.764C294.052 173.397 293.776 174.676 293.226 175.6C292.684 176.515 291.746 176.972 290.412 176.972C289.077 176.972 288.134 176.515 287.584 175.6C287.042 174.676 286.772 173.397 286.772 171.764ZM292.484 171.764C292.484 171.008 292.432 170.369 292.33 169.846C292.236 169.323 292.04 168.899 291.742 168.572C291.443 168.236 291 168.068 290.412 168.068C289.824 168.068 289.38 168.236 289.082 168.572C288.783 168.899 288.582 169.323 288.48 169.846C288.386 170.369 288.34 171.008 288.34 171.764C288.34 172.548 288.386 173.206 288.48 173.738C288.573 174.27 288.769 174.699 289.068 175.026C289.376 175.353 289.824 175.516 290.412 175.516C291 175.516 291.443 175.353 291.742 175.026C292.05 174.699 292.25 174.27 292.344 173.738C292.437 173.206 292.484 172.548 292.484 171.764ZM297.728 174.228C297.822 174.695 298.022 175.049 298.33 175.292C298.638 175.535 299.054 175.656 299.576 175.656C300.239 175.656 300.724 175.395 301.032 174.872C301.34 174.349 301.494 173.458 301.494 172.198C301.27 172.515 300.953 172.763 300.542 172.94C300.141 173.108 299.702 173.192 299.226 173.192C298.62 173.192 298.069 173.071 297.574 172.828C297.08 172.576 296.688 172.207 296.398 171.722C296.118 171.227 295.978 170.63 295.978 169.93C295.978 168.903 296.277 168.087 296.874 167.48C297.481 166.864 298.312 166.556 299.366 166.556C300.636 166.556 301.536 166.981 302.068 167.83C302.61 168.67 302.88 169.963 302.88 171.708C302.88 172.912 302.778 173.897 302.572 174.662C302.376 175.427 302.031 176.006 301.536 176.398C301.042 176.79 300.356 176.986 299.478 176.986C298.48 176.986 297.71 176.725 297.168 176.202C296.627 175.679 296.324 175.021 296.258 174.228H297.728ZM299.506 171.848C300.066 171.848 300.505 171.675 300.822 171.33C301.149 170.975 301.312 170.509 301.312 169.93C301.312 169.286 301.14 168.787 300.794 168.432C300.458 168.068 299.996 167.886 299.408 167.886C298.82 167.886 298.354 168.073 298.008 168.446C297.672 168.81 297.504 169.291 297.504 169.888C297.504 170.457 297.668 170.929 297.994 171.302C298.33 171.666 298.834 171.848 299.506 171.848ZM310.017 163.784L306.209 179.45H304.641L308.435 163.784H310.017ZM312.701 174.83C313.597 174.055 314.301 173.421 314.815 172.926C315.337 172.422 315.771 171.899 316.117 171.358C316.462 170.817 316.635 170.275 316.635 169.734C316.635 169.174 316.499 168.735 316.229 168.418C315.967 168.101 315.552 167.942 314.983 167.942C314.432 167.942 314.003 168.119 313.695 168.474C313.396 168.819 313.237 169.286 313.219 169.874H311.679C311.707 168.81 312.024 167.998 312.631 167.438C313.247 166.869 314.026 166.584 314.969 166.584C315.986 166.584 316.779 166.864 317.349 167.424C317.927 167.984 318.217 168.731 318.217 169.664C318.217 170.336 318.044 170.985 317.699 171.61C317.363 172.226 316.957 172.781 316.481 173.276C316.014 173.761 315.417 174.326 314.689 174.97L314.059 175.53H318.497V176.86H311.693V175.698L312.701 174.83ZM326.479 168.166H321.789V170.952C321.985 170.691 322.274 170.471 322.657 170.294C323.049 170.117 323.464 170.028 323.903 170.028C324.687 170.028 325.321 170.196 325.807 170.532C326.301 170.868 326.651 171.293 326.857 171.806C327.071 172.319 327.179 172.861 327.179 173.43C327.179 174.121 327.043 174.737 326.773 175.278C326.511 175.81 326.115 176.23 325.583 176.538C325.06 176.846 324.416 177 323.651 177C322.633 177 321.817 176.748 321.201 176.244C320.585 175.74 320.216 175.073 320.095 174.242H321.649C321.751 174.681 321.98 175.031 322.335 175.292C322.689 175.544 323.133 175.67 323.665 175.67C324.327 175.67 324.822 175.469 325.149 175.068C325.485 174.667 325.653 174.135 325.653 173.472C325.653 172.8 325.485 172.287 325.149 171.932C324.813 171.568 324.318 171.386 323.665 171.386C323.207 171.386 322.82 171.503 322.503 171.736C322.195 171.96 321.971 172.268 321.831 172.66H320.319V166.766H326.479V168.166Z" fill="white"/>
<defs>
<linearGradient id="paint0_linear_339_2241" x1="180.234" y1="-33.8211" x2="187.495" y2="229.55" gradientUnits="userSpaceOnUse">
<stop stop-color="#BC8EF7"/>
<stop offset="1" stop-color="#B98EF1"/>
</linearGradient>
</defs>
</svg>
