<svg width="40" height="40" viewBox="0 0 40 40" fill="none" xmlns="http://www.w3.org/2000/svg">
<g filter="url(#filter0_i_419_1113)">
<rect x="2" y="2" width="36" height="36" rx="18" fill="white"/>
<rect x="1" y="1" width="38" height="38" rx="19" stroke="#D6BBFC" stroke-width="2"/>
<path d="M27.2505 16.5H28.6403C30.4918 16.5 31.0421 16.7655 30.9975 18.0838C30.9237 20.2674 29.939 22.8047 26 23.5" stroke="#141B34" stroke-width="1.5" stroke-linecap="round"/>
<path d="M14.9463 26.6145C11.5719 24.02 11.0747 20.3401 11.0014 16.5001C10.9698 14.8413 11.4513 14.5 13.6592 14.5H24.3408C26.5487 14.5 27.0302 14.8413 26.9986 16.5001C26.9253 20.3401 26.4281 24.02 23.0537 26.6145C22.0934 27.3528 21.2831 27.5 19.9194 27.5H18.0806C16.7169 27.5 15.9066 27.3528 14.9463 26.6145Z" stroke="#141B34" stroke-width="1.5" stroke-linecap="round"/>
<path d="M19 14.5V19.5M17.5042 22.2966L17.7962 20.4451C17.8817 19.9028 18.3942 19.5 18.9988 19.5C19.6034 19.5 20.116 19.9028 20.2015 20.4451L20.4934 22.2966C20.6508 23.2944 17.3661 23.1726 17.5042 22.2966Z" stroke="#141B34" stroke-width="1.5" stroke-linecap="round" stroke-linejoin="round"/>
<path d="M20.3089 8.5C19.7622 8.83861 19.0012 10 19.0012 11.5M16.5397 10C16.5397 10 16 10.5 16 11.5M23.0012 10C22.7279 10.1693 22.5 11 22.5 11.5" stroke="#141B34" stroke-width="1.5" stroke-linecap="round" stroke-linejoin="round"/>
</g>
<defs>
<filter id="filter0_i_419_1113" x="0" y="0" width="40" height="44" filterUnits="userSpaceOnUse" color-interpolation-filters="sRGB">
<feFlood flood-opacity="0" result="BackgroundImageFix"/>
<feBlend mode="normal" in="SourceGraphic" in2="BackgroundImageFix" result="shape"/>
<feColorMatrix in="SourceAlpha" type="matrix" values="0 0 0 0 0 0 0 0 0 0 0 0 0 0 0 0 0 0 127 0" result="hardAlpha"/>
<feOffset dy="4"/>
<feGaussianBlur stdDeviation="7.3"/>
<feComposite in2="hardAlpha" operator="arithmetic" k2="-1" k3="1"/>
<feColorMatrix type="matrix" values="0 0 0 0 0.776923 0 0 0 0 0.768706 0 0 0 0 0.768706 0 0 0 0.25 0"/>
<feBlend mode="normal" in2="shape" result="effect1_innerShadow_419_1113"/>
</filter>
</defs>
</svg>
