<svg width="40" height="40" viewBox="0 0 40 40" fill="none" xmlns="http://www.w3.org/2000/svg">
<rect x="0.5" y="0.5" width="39" height="39" rx="7.5" fill="white"/>
<rect x="0.5" y="0.5" width="39" height="39" rx="7.5" stroke="#804EC1"/>
<path fill-rule="evenodd" clip-rule="evenodd" d="M18.7803 26.7803C18.4874 27.0732 18.0126 27.0732 17.7197 26.7803L11.7197 20.7803C11.4268 20.4874 11.4268 20.0126 11.7197 19.7197L17.7197 13.7197C18.0126 13.4268 18.4874 13.4268 18.7803 13.7197C19.0732 14.0126 19.0732 14.4874 18.7803 14.7803L14.0607 19.5H28.25C28.6642 19.5 29 19.8358 29 20.25C29 20.6642 28.6642 21 28.25 21H14.0607L18.7803 25.7197C19.0732 26.0126 19.0732 26.4874 18.7803 26.7803Z" fill="black"/>
</svg>
