<svg width="40" height="40" viewBox="0 0 40 40" fill="none" xmlns="http://www.w3.org/2000/svg">
<g filter="url(#filter0_i_419_1127)">
<rect x="2" y="2" width="36" height="36" rx="18" fill="white"/>
<rect x="1" y="1" width="38" height="38" rx="19" stroke="#D6BBFC" stroke-width="2"/>
<path d="M17.3069 13.8828C17.3067 13.2854 17.1543 12.6977 16.8643 12.1767C16.5743 11.6556 16.156 11.2182 15.6502 10.9066C15.1444 10.5952 14.5678 10.4203 13.9755 10.3979C13.3831 10.3755 12.795 10.507 12.2675 10.7795C11.7399 11.052 11.2902 11.4563 10.9623 11.9541C10.6345 12.4519 10.4389 13.0263 10.3945 13.622C10.3501 14.2179 10.4578 14.8156 10.7081 15.3572C10.9272 15.831 11.249 16.2484 11.6482 16.5791L11.8249 16.7153L11.8574 16.7408C12.3659 17.1588 13.2326 17.7396 14.3198 18.4024C14.5269 18.5287 14.6532 18.7552 14.6533 18.9992C14.6533 19.2434 14.5271 19.4706 14.3198 19.597C13.2325 20.2598 12.3662 20.8397 11.8583 21.2577C11.8473 21.2666 11.8363 21.2757 11.8249 21.284C11.2377 21.7097 10.797 22.3102 10.5657 23.001C10.3346 23.6917 10.3247 24.4379 10.536 25.135C10.7474 25.8322 11.1698 26.4458 11.7447 26.8883C12.3196 27.3309 13.0181 27.5803 13.7412 27.6024C14.4641 27.6244 15.1761 27.4184 15.7764 27.0119C16.3768 26.6052 16.8358 26.0188 17.0887 25.3357C17.3416 24.6528 17.3752 23.9072 17.1861 23.2036C16.9968 22.4999 16.5939 21.8729 16.0333 21.4121C15.7505 21.1796 15.6951 20.7658 15.9071 20.4664C16.1191 20.1669 16.5253 20.0853 16.8355 20.2792H16.8364C16.837 20.2797 16.8385 20.2801 16.84 20.2811C16.8429 20.2829 16.8475 20.2864 16.8535 20.2901C16.8656 20.2977 16.8837 20.309 16.9076 20.3238C16.9559 20.3536 17.0278 20.3974 17.1203 20.4537C17.3053 20.5661 17.5733 20.7271 17.9036 20.9206C18.5649 21.3081 19.4735 21.8238 20.4634 22.3387C21.4553 22.8547 22.5182 23.3645 23.491 23.7432C24.486 24.1306 25.3069 24.3482 25.8444 24.3482C27.2118 24.3482 28.0042 23.7016 28.4285 23.1727C26.7581 22.6155 22.8309 21.2623 19.1087 19.6397C18.8554 19.5292 18.6913 19.2774 18.6913 18.9992C18.6915 18.7211 18.8554 18.4692 19.1087 18.3588C22.8311 16.7361 26.7582 15.3829 28.4285 14.8257C28.0041 14.2969 27.2114 13.6502 25.8444 13.6502C25.3069 13.6502 24.486 13.8687 23.491 14.2561C22.5182 14.6349 21.4552 15.1438 20.4634 15.6597C19.4735 16.1747 18.5649 16.6913 17.9036 17.0787C17.5733 17.2722 17.3053 17.4333 17.1203 17.5457C17.0278 17.6019 16.9559 17.6458 16.9076 17.6756C16.8837 17.6903 16.8656 17.7017 16.8535 17.7092C16.8477 17.7128 16.8429 17.7156 16.84 17.7174C16.8385 17.7183 16.837 17.7197 16.8364 17.7201H16.8355C16.5252 17.9141 16.119 17.8317 15.9071 17.5321C15.6953 17.2324 15.751 16.8186 16.0342 16.5863C16.4324 16.2597 16.7532 15.8473 16.9734 15.3799C17.1936 14.9125 17.3074 14.4011 17.3069 13.8837V13.8828ZM14.5379 24.1157C14.5379 23.9308 14.4649 23.7532 14.3351 23.6224C14.2053 23.4917 14.0292 23.418 13.8457 23.418C13.6622 23.418 13.4861 23.4916 13.3563 23.6224C13.2265 23.7532 13.1536 23.9308 13.1535 24.1157C13.1535 24.3006 13.2266 24.4782 13.3563 24.609C13.4861 24.7398 13.6621 24.8134 13.8457 24.8134C14.0293 24.8134 14.2053 24.7398 14.3351 24.609C14.4649 24.4781 14.5379 24.3007 14.5379 24.1157ZM14.5379 13.8828C14.5379 13.6978 14.4649 13.5202 14.3351 13.3895C14.2053 13.2588 14.0292 13.1851 13.8457 13.1851C13.6622 13.1851 13.4861 13.2587 13.3563 13.3895C13.2265 13.5202 13.1536 13.6978 13.1535 13.8828C13.1535 14.0677 13.2266 14.2452 13.3563 14.3761C13.4861 14.5069 13.6621 14.5804 13.8457 14.5805C14.0293 14.5805 14.2053 14.5069 14.3351 14.3761C14.4649 14.2452 14.5379 14.0677 14.5379 13.8828ZM15.9224 24.1157C15.9224 24.6708 15.7035 25.2039 15.314 25.5965C14.9246 25.9888 14.3963 26.2088 13.8457 26.2088C13.2951 26.2088 12.7668 25.9888 12.3774 25.5965C11.988 25.2039 11.769 24.6708 11.769 24.1157C11.7691 23.5607 11.9881 23.0282 12.3774 22.6358C12.7669 22.2434 13.295 22.0226 13.8457 22.0226C14.3964 22.0226 14.9246 22.2434 15.314 22.6358C15.7034 23.0282 15.9223 23.5607 15.9224 24.1157ZM15.9224 13.8828C15.9224 14.4379 15.7035 14.971 15.314 15.3636C14.9246 15.7559 14.3963 15.9759 13.8457 15.9759C13.2951 15.9758 12.7668 15.7559 12.3774 15.3636C11.988 14.971 11.769 14.4379 11.769 13.8828C11.7691 13.3278 11.9881 12.7953 12.3774 12.4029C12.7669 12.0105 13.295 11.7897 13.8457 11.7897C14.3964 11.7897 14.9246 12.0105 15.314 12.4029C15.7034 12.7953 15.9223 13.3278 15.9224 13.8828ZM18.6841 14.1535C18.6664 14.4798 18.6134 14.8022 18.5318 15.1174C18.9366 14.893 19.3742 14.6571 19.8288 14.4206C20.8431 13.893 21.9549 13.3583 22.9925 12.9543C24.0078 12.5591 25.033 12.2548 25.8444 12.2548C28.1578 12.2548 29.3513 13.6327 29.8319 14.4097C30.2224 15.0408 29.8808 15.7362 29.3353 15.9859L29.2235 16.0295C28.0217 16.4251 24.649 17.5639 21.1691 18.9992C23.6532 20.0238 26.0824 20.8975 27.7065 21.4575L29.2235 21.9699L29.3353 22.0135C29.8808 22.2632 30.2225 22.9585 29.8319 23.5897C29.3512 24.3667 28.1577 25.7436 25.8444 25.7436C25.033 25.7436 24.0078 25.4403 22.9925 25.045C21.955 24.6411 20.843 24.1064 19.8288 23.5788C19.3744 23.3424 18.9374 23.1054 18.5327 22.8811C18.7849 23.8536 18.7347 24.8811 18.3858 25.8236C18.0316 26.7799 17.3885 27.6 16.5479 28.1692C15.7073 28.7385 14.7111 29.0287 13.6988 28.9978C12.6867 28.9668 11.7094 28.617 10.9046 27.9975C10.0998 27.378 9.50789 26.5191 9.21192 25.5429C8.91603 24.5668 8.93066 23.522 9.25428 22.5549C9.57433 21.5987 10.1802 20.7658 10.9885 20.1711C11.3967 19.836 11.9726 19.4363 12.6514 18.9992C11.9871 18.5715 11.4221 18.1789 11.0155 17.8482L10.7694 17.6574C10.2104 17.1945 9.76021 16.6102 9.45348 15.9468C9.10289 15.1885 8.95143 14.3518 9.01362 13.5176C9.07583 12.6835 9.34971 11.8796 9.80861 11.1828C10.2677 10.4859 10.897 9.91918 11.6356 9.53759C12.3742 9.15604 13.1975 8.97215 14.0269 9.00341C14.8563 9.03472 15.6639 9.28036 16.3722 9.71656C17.0804 10.1528 17.666 10.7648 18.0721 11.4944C18.4781 12.2239 18.6912 13.0463 18.6913 13.8828L18.6841 14.1535Z" fill="black"/>
</g>
<defs>
<filter id="filter0_i_419_1127" x="0" y="0" width="40" height="44" filterUnits="userSpaceOnUse" color-interpolation-filters="sRGB">
<feFlood flood-opacity="0" result="BackgroundImageFix"/>
<feBlend mode="normal" in="SourceGraphic" in2="BackgroundImageFix" result="shape"/>
<feColorMatrix in="SourceAlpha" type="matrix" values="0 0 0 0 0 0 0 0 0 0 0 0 0 0 0 0 0 0 127 0" result="hardAlpha"/>
<feOffset dy="4"/>
<feGaussianBlur stdDeviation="7.3"/>
<feComposite in2="hardAlpha" operator="arithmetic" k2="-1" k3="1"/>
<feColorMatrix type="matrix" values="0 0 0 0 0.776923 0 0 0 0 0.768706 0 0 0 0 0.768706 0 0 0 0.25 0"/>
<feBlend mode="normal" in2="shape" result="effect1_innerShadow_419_1127"/>
</filter>
</defs>
</svg>
