<svg width="22" height="22" viewBox="0 0 22 22" fill="none" xmlns="http://www.w3.org/2000/svg">
<path d="M8 16.75C8 15.9654 7.99912 15.4296 7.95996 15.0176C7.92185 14.6167 7.85265 14.4109 7.76367 14.2656C7.6315 14.0499 7.45006 13.8685 7.23438 13.7363C7.08912 13.6473 6.88326 13.5782 6.48242 13.54C6.07036 13.5009 5.53455 13.5 4.75 13.5C3.96545 13.5 3.42964 13.5009 3.01758 13.54C2.61674 13.5782 2.41088 13.6473 2.26563 13.7363C2.04994 13.8685 1.8685 14.0499 1.73633 14.2656C1.64735 14.4109 1.57815 14.6167 1.54004 15.0176C1.50088 15.4296 1.5 15.9654 1.5 16.75C1.5 17.5346 1.50088 18.0704 1.54004 18.4824C1.57815 18.8833 1.64735 19.0891 1.73633 19.2344C1.8685 19.4501 2.04994 19.6315 2.26563 19.7637C2.41088 19.8527 2.61674 19.9218 3.01758 19.96C3.42964 19.9991 3.96545 20 4.75 20C5.53455 20 6.07036 19.9991 6.48242 19.96C6.88326 19.9218 7.08912 19.8527 7.23438 19.7637C7.45006 19.6315 7.6315 19.4501 7.76367 19.2344C7.85265 19.0891 7.92185 18.8833 7.95996 18.4824C7.99912 18.0704 8 17.5346 8 16.75ZM9.5 16.75C9.5 17.5057 9.50062 18.1254 9.45312 18.625C9.40455 19.1356 9.30063 19.5981 9.04297 20.0186C8.78713 20.436 8.43603 20.7871 8.01855 21.043C7.59809 21.3006 7.13561 21.4046 6.625 21.4531C6.12543 21.5006 5.5057 21.5 4.75 21.5C3.9943 21.5 3.37457 21.5006 2.875 21.4531C2.36439 21.4046 1.90192 21.3006 1.48145 21.043C1.06397 20.7871 0.712872 20.436 0.457032 20.0186C0.199368 19.5981 0.0954488 19.1356 0.0468754 18.625C-0.00062431 18.1254 4.10377e-07 17.5057 4.10377e-07 16.75C4.10366e-07 15.9943 -0.00062431 15.3746 0.0468754 14.875C0.0954488 14.3644 0.199368 13.9019 0.457032 13.4814C0.712872 13.064 1.06397 12.7129 1.48145 12.457C1.90192 12.1994 2.36439 12.0954 2.875 12.0469C3.37457 11.9994 3.9943 12 4.75 12C5.5057 12 6.12543 11.9994 6.625 12.0469C7.13561 12.0954 7.59809 12.1994 8.01855 12.457C8.43603 12.7129 8.78713 13.064 9.04297 13.4814C9.30063 13.9019 9.40455 14.3644 9.45312 14.875C9.50062 15.3746 9.5 15.9943 9.5 16.75Z" fill="#141B34"/>
<path d="M20 16.75C20 15.9654 19.9991 15.4296 19.96 15.0176C19.9218 14.6167 19.8527 14.4109 19.7637 14.2656C19.6315 14.0499 19.4501 13.8685 19.2344 13.7363C19.0891 13.6473 18.8833 13.5782 18.4824 13.54C18.0704 13.5009 17.5346 13.5 16.75 13.5C15.9654 13.5 15.4296 13.5009 15.0176 13.54C14.6167 13.5782 14.4109 13.6473 14.2656 13.7363C14.0499 13.8685 13.8685 14.0499 13.7363 14.2656C13.6473 14.4109 13.5782 14.6167 13.54 15.0176C13.5009 15.4296 13.5 15.9654 13.5 16.75C13.5 17.5346 13.5009 18.0704 13.54 18.4824C13.5782 18.8833 13.6473 19.0891 13.7363 19.2344C13.8685 19.4501 14.0499 19.6315 14.2656 19.7637C14.4109 19.8527 14.6167 19.9218 15.0176 19.96C15.4296 19.9991 15.9654 20 16.75 20C17.5346 20 18.0704 19.9991 18.4824 19.96C18.8833 19.9218 19.0891 19.8527 19.2344 19.7637C19.4501 19.6315 19.6315 19.4501 19.7637 19.2344C19.8527 19.0891 19.9218 18.8833 19.96 18.4824C19.9991 18.0704 20 17.5346 20 16.75ZM21.5 16.75C21.5 17.5057 21.5006 18.1254 21.4531 18.625C21.4046 19.1356 21.3006 19.5981 21.043 20.0186C20.7871 20.436 20.436 20.7871 20.0186 21.043C19.5981 21.3006 19.1356 21.4046 18.625 21.4531C18.1254 21.5006 17.5057 21.5 16.75 21.5C15.9943 21.5 15.3746 21.5006 14.875 21.4531C14.3644 21.4046 13.9019 21.3006 13.4814 21.043C13.064 20.7871 12.7129 20.436 12.457 20.0186C12.1994 19.5981 12.0954 19.1356 12.0469 18.625C11.9994 18.1254 12 17.5057 12 16.75C12 15.9943 11.9994 15.3746 12.0469 14.875C12.0954 14.3644 12.1994 13.9019 12.457 13.4814C12.7129 13.064 13.064 12.7129 13.4814 12.457C13.9019 12.1994 14.3644 12.0954 14.875 12.0469C15.3746 11.9994 15.9943 12 16.75 12C17.5057 12 18.1254 11.9994 18.625 12.0469C19.1356 12.0954 19.5981 12.1994 20.0186 12.457C20.436 12.7129 20.7871 13.064 21.043 13.4814C21.3006 13.9019 21.4046 14.3644 21.4531 14.875C21.5006 15.3746 21.5 15.9943 21.5 16.75Z" fill="#141B34"/>
<path d="M8 4.75C8 3.96545 7.99912 3.42964 7.95996 3.01758C7.92185 2.61674 7.85265 2.41088 7.76367 2.26563C7.6315 2.04994 7.45006 1.8685 7.23438 1.73633C7.08912 1.64735 6.88326 1.57815 6.48242 1.54004C6.07036 1.50088 5.53455 1.5 4.75 1.5C3.96545 1.5 3.42964 1.50088 3.01758 1.54004C2.61674 1.57815 2.41088 1.64735 2.26563 1.73633C2.04994 1.8685 1.8685 2.04994 1.73633 2.26563C1.64735 2.41088 1.57815 2.61674 1.54004 3.01758C1.50088 3.42964 1.5 3.96545 1.5 4.75C1.5 5.53455 1.50088 6.07036 1.54004 6.48242C1.57815 6.88326 1.64735 7.08912 1.73633 7.23438C1.8685 7.45006 2.04994 7.6315 2.26563 7.76367C2.41088 7.85265 2.61674 7.92185 3.01758 7.95996C3.42964 7.99912 3.96545 8 4.75 8C5.53455 8 6.07036 7.99912 6.48242 7.95996C6.88326 7.92185 7.08912 7.85265 7.23438 7.76367C7.45006 7.6315 7.6315 7.45006 7.76367 7.23438C7.85265 7.08912 7.92185 6.88326 7.95996 6.48242C7.99912 6.07036 8 5.53455 8 4.75ZM9.5 4.75C9.5 5.5057 9.50062 6.12543 9.45312 6.625C9.40455 7.13561 9.30063 7.59809 9.04297 8.01855C8.78713 8.43603 8.43603 8.78713 8.01855 9.04297C7.59809 9.30063 7.13561 9.40455 6.625 9.45312C6.12543 9.50062 5.5057 9.5 4.75 9.5C3.9943 9.5 3.37457 9.50062 2.875 9.45312C2.36439 9.40455 1.90192 9.30063 1.48145 9.04297C1.06397 8.78713 0.712872 8.43603 0.457032 8.01855C0.199368 7.59809 0.0954488 7.13561 0.0468754 6.625C-0.00062431 6.12543 4.10377e-07 5.5057 4.10377e-07 4.75C4.10366e-07 3.9943 -0.00062431 3.37457 0.0468754 2.875C0.0954488 2.36439 0.199368 1.90192 0.457032 1.48145C0.712872 1.06397 1.06397 0.712872 1.48145 0.457032C1.90192 0.199368 2.36439 0.0954488 2.875 0.0468754C3.37457 -0.00062431 3.9943 4.10366e-07 4.75 4.10377e-07C5.5057 4.10377e-07 6.12543 -0.00062431 6.625 0.0468754C7.13561 0.0954488 7.59809 0.199368 8.01855 0.457032C8.43603 0.712872 8.78713 1.06397 9.04297 1.48145C9.30063 1.90192 9.40455 2.36439 9.45312 2.875C9.50062 3.37457 9.5 3.9943 9.5 4.75Z" fill="#141B34"/>
<path d="M20 4.75C20 3.96545 19.9991 3.42964 19.96 3.01758C19.9218 2.61674 19.8527 2.41088 19.7637 2.26563C19.6315 2.04994 19.4501 1.8685 19.2344 1.73633C19.0891 1.64735 18.8833 1.57815 18.4824 1.54004C18.0704 1.50088 17.5346 1.5 16.75 1.5C15.9654 1.5 15.4296 1.50088 15.0176 1.54004C14.6167 1.57815 14.4109 1.64735 14.2656 1.73633C14.0499 1.8685 13.8685 2.04994 13.7363 2.26563C13.6473 2.41088 13.5782 2.61674 13.54 3.01758C13.5009 3.42964 13.5 3.96545 13.5 4.75C13.5 5.53455 13.5009 6.07036 13.54 6.48242C13.5782 6.88326 13.6473 7.08912 13.7363 7.23438C13.8685 7.45006 14.0499 7.6315 14.2656 7.76367C14.4109 7.85265 14.6167 7.92185 15.0176 7.95996C15.4296 7.99912 15.9654 8 16.75 8C17.5346 8 18.0704 7.99912 18.4824 7.95996C18.8833 7.92185 19.0891 7.85265 19.2344 7.76367C19.4501 7.6315 19.6315 7.45006 19.7637 7.23438C19.8527 7.08912 19.9218 6.88326 19.96 6.48242C19.9991 6.07036 20 5.53455 20 4.75ZM21.5 4.75C21.5 5.5057 21.5006 6.12543 21.4531 6.625C21.4046 7.13561 21.3006 7.59809 21.043 8.01855C20.7871 8.43603 20.436 8.78713 20.0186 9.04297C19.5981 9.30063 19.1356 9.40455 18.625 9.45312C18.1254 9.50062 17.5057 9.5 16.75 9.5C15.9943 9.5 15.3746 9.50062 14.875 9.45312C14.3644 9.40455 13.9019 9.30063 13.4814 9.04297C13.064 8.78713 12.7129 8.43603 12.457 8.01855C12.1994 7.59809 12.0954 7.13561 12.0469 6.625C11.9994 6.12543 12 5.5057 12 4.75C12 3.9943 11.9994 3.37457 12.0469 2.875C12.0954 2.36439 12.1994 1.90192 12.457 1.48145C12.7129 1.06397 13.064 0.712872 13.4814 0.457032C13.9019 0.199368 14.3644 0.0954488 14.875 0.0468754C15.3746 -0.00062431 15.9943 4.10366e-07 16.75 4.10377e-07C17.5057 4.10377e-07 18.1254 -0.00062431 18.625 0.0468754C19.1356 0.0954488 19.5981 0.199368 20.0186 0.457032C20.436 0.712872 20.7871 1.06397 21.043 1.48145C21.3006 1.90192 21.4046 2.36439 21.4531 2.875C21.5006 3.37457 21.5 3.9943 21.5 4.75Z" fill="#141B34"/>
</svg>
