<svg width="22" height="22" viewBox="0 0 22 22" fill="none" xmlns="http://www.w3.org/2000/svg">
<path d="M7.74396 0.75C4.94709 0.813948 3.31347 1.08111 2.19729 2.19729C1.08111 3.31347 0.813948 4.94709 0.75 7.74396M13.756 0.75C16.5529 0.813948 18.1865 1.08111 19.3027 2.19729C20.4189 3.31347 20.6861 4.94709 20.75 7.74396M13.756 20.75C16.5529 20.6861 18.1865 20.4189 19.3027 19.3027C20.4189 18.1865 20.6861 16.5529 20.75 13.756M7.74396 20.75C4.94709 20.6861 3.31347 20.4189 2.19729 19.3027C1.08111 18.1865 0.813948 16.5529 0.75 13.756" stroke="#804EC1" stroke-width="1.5" stroke-linecap="round" stroke-linejoin="round"/>
<path d="M15.7498 5.75H15.7588" stroke="#804EC1" stroke-width="2" stroke-linecap="round" stroke-linejoin="round"/>
<path d="M11.75 4.75V7.75C11.75 9.63562 11.75 10.5784 11.1642 11.1642C10.5784 11.75 9.63562 11.75 7.75 11.75H4.75" stroke="#804EC1" stroke-width="1.5" stroke-linecap="round"/>
<path d="M5.04289 5.04289C4.75 5.33579 4.75 5.80719 4.75 6.75C4.75 7.69281 4.75 8.16421 5.04289 8.45711M5.04289 5.04289C5.33579 4.75 5.80719 4.75 6.75 4.75C7.69281 4.75 8.16421 4.75 8.45711 5.04289M5.04289 5.04289C5.04289 5.04289 5.04289 5.04289 5.04289 5.04289ZM5.04289 8.45711C5.33579 8.75 5.80719 8.75 6.75 8.75C7.69281 8.75 8.16421 8.75 8.45711 8.45711M5.04289 8.45711C5.04289 8.45711 5.04289 8.45711 5.04289 8.45711ZM8.45711 8.45711C8.75 8.16421 8.75 7.69281 8.75 6.75C8.75 5.80719 8.75 5.33579 8.45711 5.04289M8.45711 8.45711C8.45711 8.45711 8.45711 8.45711 8.45711 8.45711ZM8.45711 5.04289C8.45711 5.04289 8.45711 5.04289 8.45711 5.04289Z" stroke="#804EC1" stroke-width="1.5"/>
<path d="M15.75 13.75C16.2214 13.75 16.4571 13.75 16.6036 13.8964C16.75 14.0429 16.75 14.2786 16.75 14.75V15.75C16.75 16.2214 16.75 16.4571 16.6036 16.6036C16.4571 16.75 16.2214 16.75 15.75 16.75H13.75C13.2786 16.75 13.0429 16.75 12.8964 16.6036C12.75 16.4571 12.75 16.2214 12.75 15.75L12.75 14.75C12.75 14.2786 12.75 14.0429 12.8964 13.8964C13.0429 13.75 13.2786 13.75 13.75 13.75L15.75 13.75Z" stroke="#804EC1" stroke-width="1.5"/>
<path d="M4.75 16.75H9.75" stroke="#804EC1" stroke-width="1.5" stroke-linecap="round"/>
<path d="M15.75 8.75L15.75 10.75" stroke="#804EC1" stroke-width="1.5" stroke-linecap="round"/>
</svg>
